<svg width="48" height="76" viewBox="0 0 48 76" fill="none" xmlns="http://www.w3.org/2000/svg">
<circle cx="3" cy="3" r="3" transform="matrix(-1 0 0 1 48 14)" fill="#A796BE"/>
<circle cx="3" cy="3" r="3" transform="matrix(-1 0 0 1 48 28)" fill="#A796BE"/>
<circle cx="3" cy="3" r="3" transform="matrix(-1 0 0 1 48 42)" fill="#A796BE"/>
<circle cx="3" cy="3" r="3" transform="matrix(-1 0 0 1 48 56)" fill="#A796BE"/>
<circle cx="3" cy="3" r="3" transform="matrix(-1 0 0 1 48 70)" fill="#A796BE"/>
<circle cx="3" cy="3" r="3" transform="matrix(-1 0 0 1 34 14)" fill="#F99417"/>
<circle cx="3" cy="3" r="3" transform="matrix(-1 0 0 1 34 28)" fill="#F99417"/>
<circle cx="3" cy="3" r="3" transform="matrix(-1 0 0 1 34 42)" fill="#F99417"/>
<circle cx="3" cy="3" r="3" transform="matrix(-1 0 0 1 34 56)" fill="#F99417"/>
<circle cx="3" cy="3" r="3" transform="matrix(-1 0 0 1 34 70)" fill="#F99417"/>
<circle cx="3" cy="3" r="3" transform="matrix(-1 0 0 1 20 14)" fill="#A796BE"/>
<circle cx="3" cy="3" r="3" transform="matrix(-1 0 0 1 20 28)" fill="#F99417"/>
<circle cx="3" cy="3" r="3" transform="matrix(-1 0 0 1 20 42)" fill="#F99417"/>
<circle cx="3" cy="3" r="3" transform="matrix(-1 0 0 1 20 56)" fill="#F99417"/>
<circle cx="3" cy="3" r="3" transform="matrix(-1 0 0 1 20 70)" fill="#F99417"/>
<circle cx="3" cy="3" r="3" transform="matrix(-1 0 0 1 6 14)" fill="#A796BE"/>
<circle cx="3" cy="3" r="3" transform="matrix(-1 0 0 1 6 28)" fill="#A796BE"/>
<circle cx="3" cy="3" r="3" transform="matrix(-1 0 0 1 6 42)" fill="#F99417"/>
<circle cx="3" cy="3" r="3" transform="matrix(-1 0 0 1 6 56)" fill="#F99417"/>
<circle cx="3" cy="3" r="3" transform="matrix(-1 0 0 1 6 70)" fill="#F99417"/>
<circle cx="3" cy="3" r="3" transform="matrix(-1 0 0 1 48 0)" fill="#A796BE"/>
<circle cx="3" cy="3" r="3" transform="matrix(-1 0 0 1 34 0)" fill="#A796BE"/>
<circle cx="3" cy="3" r="3" transform="matrix(-1 0 0 1 20 0)" fill="#A796BE"/>
<circle cx="3" cy="3" r="3" transform="matrix(-1 0 0 1 6 0)" fill="#A796BE"/>
</svg>
