<svg width="40" height="40" viewBox="0 0 40 40" fill="none" xmlns="http://www.w3.org/2000/svg">
<path d="M36.35 6.56668C33.7833 12.9667 27.35 21.6667 21.9667 25.9833L18.6833 28.6167C18.2667 28.9167 17.85 29.1833 17.3833 29.3667C17.3833 29.0667 17.3667 28.7333 17.3167 28.4167C17.1333 27.0167 16.5 25.7167 15.3833 24.6C14.25 23.4667 12.8667 22.8 11.45 22.6167C11.1167 22.6 10.7833 22.5667 10.45 22.6C10.6333 22.0833 10.9167 21.6 11.2667 21.2L13.8667 17.9167C18.1667 12.5333 26.9 6.06668 33.2833 3.51668C34.2667 3.15001 35.2167 3.41668 35.8167 4.03334C36.45 4.65001 36.75 5.60001 36.35 6.56668Z" stroke="#5D3891" stroke-width="2" stroke-linecap="round" stroke-linejoin="round"/>
<path d="M23.7333 24.1167C23.7333 19.7667 20.2 16.2333 15.85 16.2333M17.3833 29.3667C17.3833 31.2 16.6833 32.95 15.3667 34.2833C14.35 35.3 12.9667 36 11.3167 36.2167L7.21668 36.6667C4.98334 36.9167 3.06668 35.0167 3.33334 32.75L3.78334 28.65C4.18334 25 7.23334 22.6667 10.4667 22.6C10.8 22.5833 11.15 22.6 11.4667 22.6167C12.8833 22.8 14.2667 23.45 15.4 24.6C16.5167 25.7167 17.15 27.0167 17.3333 28.4167C17.35 28.7333 17.3833 29.05 17.3833 29.3667Z" stroke="#5D3891" stroke-width="2" stroke-linecap="round" stroke-linejoin="round"/>
<path d="M22.45 34.7833C24.9 37.2333 27.3833 37.2333 29.8333 34.7833L34.7667 29.85C37.25 27.3667 37.25 24.9167 34.7667 22.4333L33.5333 21.2167L28.6 26.1333M5.18333 17.5167C2.73333 15.0333 2.73333 12.5833 5.18333 10.1L10.1167 5.16666C12.5667 2.71666 15.05 2.71666 17.5 5.16666L18.7333 6.4M18.75 6.41666L12.5833 12.5833" stroke="#5D3891" stroke-width="2" stroke-linecap="round"/>
</svg>
